<svg width="18" height="12" viewBox="0 0 18 12" fill="none" xmlns="http://www.w3.org/2000/svg">
<path d="M6.50033 5.99984C8.10866 5.99984 9.41699 4.6915 9.41699 3.08317C9.41699 1.47484 8.10866 0.166504 6.50033 0.166504C4.89199 0.166504 3.58366 1.47484 3.58366 3.08317C3.58366 4.6915 4.89199 5.99984 6.50033 5.99984ZM6.50033 1.83317C7.19199 1.83317 7.75033 2.3915 7.75033 3.08317C7.75033 3.77484 7.19199 4.33317 6.50033 4.33317C5.80866 4.33317 5.25033 3.77484 5.25033 3.08317C5.25033 2.3915 5.80866 1.83317 6.50033 1.83317ZM6.54199 10.1665H2.97533C3.80033 9.74984 5.22533 9.33317 6.50033 9.33317C6.59199 9.33317 6.69199 9.3415 6.78366 9.3415C7.06699 8.73317 7.55866 8.23317 8.15033 7.83317C7.54199 7.72484 6.96699 7.6665 6.50033 7.6665C4.55033 7.6665 0.666992 8.6415 0.666992 10.5832V11.8332H6.50033V10.5832C6.50033 10.4415 6.51699 10.2998 6.54199 10.1665ZM12.7503 8.08317C11.217 8.08317 8.16699 8.92484 8.16699 10.5832V11.8332H17.3337V10.5832C17.3337 8.92484 14.2837 8.08317 12.7503 8.08317ZM13.7587 6.5665C14.392 6.20817 14.8337 5.53317 14.8337 4.74984C14.8337 3.59984 13.9003 2.6665 12.7503 2.6665C11.6003 2.6665 10.667 3.59984 10.667 4.74984C10.667 5.53317 11.1087 6.20817 11.742 6.5665C12.042 6.73317 12.3837 6.83317 12.7503 6.83317C13.117 6.83317 13.4587 6.73317 13.7587 6.5665Z" fill="#544AD8"/>
</svg>
