<svg width="18" height="16" viewBox="0 0 18 16" fill="none" xmlns="http://www.w3.org/2000/svg">
<path d="M2.40397 12.5832V12.0415C2.40397 11.7582 2.5373 11.4915 2.74564 11.3665C4.15397 10.5248 5.76231 10.0832 7.40397 10.0832C7.42897 10.0832 7.44564 10.0832 7.47064 10.0915C7.55397 9.50817 7.72064 8.94984 7.96231 8.4415C7.77897 8.42484 7.59564 8.4165 7.40397 8.4165C5.38731 8.4165 3.50397 8.97484 1.89564 9.93317C1.1623 10.3665 0.737305 11.1832 0.737305 12.0415V14.2498H8.45397C8.10397 13.7498 7.82897 13.1832 7.64564 12.5832H2.40397Z" fill="#544AD8"/>
<path d="M7.40397 7.58317C9.24564 7.58317 10.7373 6.0915 10.7373 4.24984C10.7373 2.40817 9.24564 0.916504 7.40397 0.916504C5.56231 0.916504 4.07064 2.40817 4.07064 4.24984C4.07064 6.0915 5.56231 7.58317 7.40397 7.58317ZM7.40397 2.58317C8.32064 2.58317 9.07064 3.33317 9.07064 4.24984C9.07064 5.1665 8.32064 5.9165 7.40397 5.9165C6.48731 5.9165 5.73731 5.1665 5.73731 4.24984C5.73731 3.33317 6.48731 2.58317 7.40397 2.58317Z" fill="#544AD8"/>
<path d="M16.3623 10.9165C16.3623 10.7332 16.3373 10.5665 16.3123 10.3915L17.2623 9.54984L16.429 8.10817L15.2206 8.5165C14.954 8.2915 14.654 8.1165 14.3206 7.9915L14.0706 6.74984H12.404L12.154 7.9915C11.8206 8.1165 11.5206 8.2915 11.254 8.5165L10.0456 8.10817L9.21231 9.54984L10.1623 10.3915C10.1373 10.5665 10.1123 10.7332 10.1123 10.9165C10.1123 11.0998 10.1373 11.2665 10.1623 11.4415L9.21231 12.2832L10.0456 13.7248L11.254 13.3165C11.5206 13.5415 11.8206 13.7165 12.154 13.8415L12.404 15.0832H14.0706L14.3206 13.8415C14.654 13.7165 14.954 13.5415 15.2206 13.3165L16.429 13.7248L17.2623 12.2832L16.3123 11.4415C16.3373 11.2665 16.3623 11.0998 16.3623 10.9165ZM13.2373 12.5832C12.3206 12.5832 11.5706 11.8332 11.5706 10.9165C11.5706 9.99984 12.3206 9.24984 13.2373 9.24984C14.154 9.24984 14.904 9.99984 14.904 10.9165C14.904 11.8332 14.154 12.5832 13.2373 12.5832Z" fill="#544AD8"/>
</svg>
