<svg width="16" height="16" viewBox="0 0 16 16" fill="none" xmlns="http://www.w3.org/2000/svg">
<path d="M1.56667 13.8333V14.4333H2.16667H7.16667H7.76667V13.8333V2.16667V1.56667H7.16667H2.16667H1.56667V2.16667V13.8333ZM13.8333 14.4333H14.4333V13.8333V8V7.4H13.8333H8.83333H8.23333V8V13.8333V14.4333H8.83333H13.8333ZM13.8333 6.93333H14.4333V6.33333V2.16667V1.56667H13.8333H8.83333H8.23333V2.16667V6.33333V6.93333H8.83333H13.8333ZM2.16667 1.1H13.8333C14.4186 1.1 14.9 1.58137 14.9 2.16667V13.8333C14.9 14.4186 14.4186 14.9 13.8333 14.9H2.16667C1.58137 14.9 1.1 14.4186 1.1 13.8333V2.16667C1.1 1.58137 1.58137 1.1 2.16667 1.1Z" stroke="white" stroke-width="1.2"/>
</svg>
