<svg width="24" height="12" viewBox="0 0 24 12" fill="none" xmlns="http://www.w3.org/2000/svg">
<path d="M18.5 0.5C15.46 0.5 13 2.96 13 6C13 7.33 13.47 8.55 14.26 9.5H9.74C10.53 8.55 11 7.33 11 6C11 2.96 8.54 0.5 5.5 0.5C2.46 0.5 0 2.96 0 6C0 9.04 2.46 11.5 5.5 11.5H18.5C21.54 11.5 24 9.04 24 6C24 2.96 21.54 0.5 18.5 0.5ZM5.5 9.5C3.57 9.5 2 7.93 2 6C2 4.07 3.57 2.5 5.5 2.5C7.43 2.5 9 4.07 9 6C9 7.93 7.43 9.5 5.5 9.5ZM18.5 9.5C16.57 9.5 15 7.93 15 6C15 4.07 16.57 2.5 18.5 2.5C20.43 2.5 22 4.07 22 6C22 7.93 20.43 9.5 18.5 9.5Z" fill="#475258"/>
</svg>
