<svg width="20" height="16" viewBox="0 0 20 16" fill="none" xmlns="http://www.w3.org/2000/svg">
<path d="M14.1663 10.5H15.833V12.1667H14.1663V10.5ZM14.1663 7.16667H15.833V8.83333H14.1663V7.16667ZM14.1663 3.83333H15.833V5.5H14.1663V3.83333ZM11.4497 3.83333L12.4997 4.53333V3.83333H11.4497Z" fill="#544AD8"/>
<path d="M8.33301 0.5V1.75833L9.99967 2.86667V2.16667H17.4997V13.8333H14.1663V15.5H19.1663V0.5H8.33301Z" fill="#544AD8"/>
<path d="M6.80801 2.75L12.4997 6.54167V15.5H0.833008V6.73333L6.80801 2.75ZM8.33301 13.8333H10.833V7.3L6.80801 4.74167L2.49967 7.48333V13.8333H4.99967V8.83333H8.33301V13.8333Z" fill="#544AD8"/>
</svg>
