<svg width="12" height="20" viewBox="0 0 12 20" fill="none" xmlns="http://www.w3.org/2000/svg">
<path d="M9.33301 0.833496H2.66634C1.51634 0.833496 0.583008 1.76683 0.583008 2.91683V17.0835C0.583008 18.2335 1.51634 19.1668 2.66634 19.1668H9.33301C10.483 19.1668 11.4163 18.2335 11.4163 17.0835V2.91683C11.4163 1.76683 10.483 0.833496 9.33301 0.833496ZM5.99967 18.3335C5.30801 18.3335 4.74967 17.7752 4.74967 17.0835C4.74967 16.3918 5.30801 15.8335 5.99967 15.8335C6.69134 15.8335 7.24967 16.3918 7.24967 17.0835C7.24967 17.7752 6.69134 18.3335 5.99967 18.3335ZM9.74967 15.0002H2.24967V3.3335H9.74967V15.0002Z" fill="#544AD8"/>
</svg>
