<svg width="18" height="18" viewBox="0 0 14 14" fill="none" xmlns="http://www.w3.org/2000/svg">
<path d="M6.99967 1.91683C7.96634 1.91683 8.74967 2.70016 8.74967 3.66683C8.74967 4.6335 7.96634 5.41683 6.99967 5.41683C6.03301 5.41683 5.24967 4.6335 5.24967 3.66683C5.24967 2.70016 6.03301 1.91683 6.99967 1.91683ZM6.99967 9.41683C9.47467 9.41683 12.083 10.6335 12.083 11.1668V12.0835H1.91634V11.1668C1.91634 10.6335 4.52467 9.41683 6.99967 9.41683ZM6.99967 0.333496C5.15801 0.333496 3.66634 1.82516 3.66634 3.66683C3.66634 5.5085 5.15801 7.00016 6.99967 7.00016C8.84134 7.00016 10.333 5.5085 10.333 3.66683C10.333 1.82516 8.84134 0.333496 6.99967 0.333496ZM6.99967 7.8335C4.77467 7.8335 0.333008 8.95016 0.333008 11.1668V13.6668H13.6663V11.1668C13.6663 8.95016 9.22467 7.8335 6.99967 7.8335Z" fill="#544AD8"/>
</svg>
