<svg width="14" height="14" viewBox="0 0 14 14" fill="none" xmlns="http://www.w3.org/2000/svg">
<path d="M9.81641 8.69125H9.22391L9.01391 8.48875C9.74891 7.63375 10.1914 6.52375 10.1914 5.31625C10.1914 2.62375 8.00891 0.44125 5.31641 0.44125C2.62391 0.44125 0.441406 2.62375 0.441406 5.31625C0.441406 8.00875 2.62391 10.1912 5.31641 10.1912C6.52391 10.1912 7.63391 9.74875 8.48891 9.01375L8.69141 9.22375V9.81625L12.4414 13.5588L13.5589 12.4412L9.81641 8.69125ZM5.31641 8.69125C3.44891 8.69125 1.94141 7.18375 1.94141 5.31625C1.94141 3.44875 3.44891 1.94125 5.31641 1.94125C7.18391 1.94125 8.69141 3.44875 8.69141 5.31625C8.69141 7.18375 7.18391 8.69125 5.31641 8.69125Z" fill="#8595A6"/>
</svg>
