<svg width="12" height="13" viewBox="0 0 12 13" fill="none" xmlns="http://www.w3.org/2000/svg">
<path d="M11.3333 8.98311C10.5067 8.98311 9.7 8.84978 8.95333 8.60311C8.88667 8.57645 8.81333 8.56978 8.74667 8.56978C8.57333 8.56978 8.40667 8.63645 8.27333 8.76311L6.80667 10.2298C4.92 9.26311 3.37333 7.72311 2.41333 5.83645L3.88 4.36978C4.06667 4.18311 4.12 3.92311 4.04667 3.68978C3.8 2.94311 3.66667 2.14311 3.66667 1.30978C3.66667 0.943112 3.36667 0.643112 3 0.643112H0.666667C0.3 0.643112 0 0.943112 0 1.30978C0 7.56978 5.07333 12.6431 11.3333 12.6431C11.7 12.6431 12 12.3431 12 11.9764V9.64978C12 9.28311 11.7 8.98311 11.3333 8.98311ZM1.35333 1.97645H2.35333C2.4 2.56978 2.5 3.14978 2.66 3.70311L1.86 4.50311C1.58667 3.70311 1.41333 2.85645 1.35333 1.97645ZM10.6667 11.2898C9.78667 11.2298 8.94 11.0564 8.13333 10.7898L8.92667 9.99645C9.49333 10.1564 10.0733 10.2564 10.66 10.2964V11.2898H10.6667ZM10 4.64311H8.27333L11.62 1.29645L10.68 0.356445L7.33333 3.70311V1.97645H6V5.97645H10V4.64311Z" fill="#544AD8"/>
</svg>
